<?xml version="1.0" encoding="UTF-8" standalone="no"?><!DOCTYPE svg PUBLIC "-//W3C//DTD SVG 1.1//EN" "http://www.w3.org/Graphics/SVG/1.1/DTD/svg11.dtd"><svg width="100%" height="100%" viewBox="0 0 100 100" version="1.1" xmlns="http://www.w3.org/2000/svg" xmlns:xlink="http://www.w3.org/1999/xlink" xml:space="preserve" style="fill-rule:evenodd;clip-rule:evenodd;stroke-linejoin:round;stroke-miterlimit:1.41421;"><g><path d="M25.231,85.829l-1.205,-2.616l-0.015,0l-1.189,2.616l2.409,0Zm-6.515,3.392l4.962,-10.669c0.048,-0.094 0.158,-0.174 0.27,-0.174l0.158,0c0.11,0 0.222,0.08 0.269,0.174l4.962,10.669c0.095,0.206 -0.032,0.412 -0.269,0.412l-1.76,0c-0.285,0 -0.412,-0.094 -0.555,-0.396l-0.57,-1.252l-4.312,0l-0.571,1.268c-0.079,0.19 -0.253,0.38 -0.571,0.38l-1.743,0c-0.238,0 -0.365,-0.206 -0.27,-0.412" style="fill:#313149;fill-rule:nonzero;"/><path d="M41.797,78.378c1.585,0 2.758,0.491 3.836,1.475c0.143,0.127 0.143,0.317 0.016,0.444l-1.237,1.283c-0.111,0.112 -0.285,0.112 -0.396,0c-0.587,-0.523 -1.363,-0.808 -2.14,-0.808c-1.791,0 -3.107,1.49 -3.107,3.265c0,1.76 1.332,3.218 3.123,3.218c0.745,0 1.553,-0.269 2.124,-0.76c0.111,-0.096 0.317,-0.096 0.412,0.016l1.236,1.316c0.112,0.11 0.096,0.316 -0.015,0.427c-1.078,1.046 -2.441,1.538 -3.852,1.538c-3.171,0 -5.723,-2.521 -5.723,-5.691c0,-3.171 2.552,-5.723 5.723,-5.723" style="fill:#313149;fill-rule:nonzero;"/><path d="M54.986,78.632c0.016,-0.143 0.158,-0.254 0.285,-0.254l0.254,0c0.079,0 0.221,0.064 0.269,0.159l3.678,6.848l0.032,0l3.678,-6.848c0.047,-0.095 0.19,-0.159 0.268,-0.159l0.255,0c0.126,0 0.268,0.111 0.284,0.254l1.792,10.652c0.032,0.207 -0.111,0.349 -0.301,0.349l-1.871,0c-0.143,0 -0.286,-0.126 -0.301,-0.253l-0.714,-4.899l-0.031,0l-2.664,5.136c-0.047,0.096 -0.19,0.175 -0.269,0.175l-0.285,0c-0.095,0 -0.222,-0.079 -0.269,-0.175l-2.679,-5.136l-0.032,0l-0.697,4.899c-0.017,0.127 -0.143,0.253 -0.302,0.253l-1.87,0c-0.191,0 -0.333,-0.142 -0.302,-0.349l1.792,-10.652Z" style="fill:#313149;fill-rule:nonzero;"/><path d="M74.151,78.838c0,-0.159 0.126,-0.301 0.301,-0.301l6.563,0c0.174,0 0.301,0.142 0.301,0.301l0,1.728c0,0.158 -0.127,0.301 -0.301,0.301l-4.392,0l0,1.966l3.615,0c0.158,0 0.301,0.142 0.301,0.301l0,1.728c0,0.174 -0.143,0.301 -0.301,0.301l-3.615,0l0,2.14l4.392,0c0.174,0 0.301,0.143 0.301,0.301l0,1.729c0,0.158 -0.127,0.3 -0.301,0.3l-6.563,0c-0.175,0 -0.301,-0.142 -0.301,-0.3l0,-10.495Z" style="fill:#313149;fill-rule:nonzero;"/><path d="M47.658,20.402c1.33,0 2.409,-1.079 2.409,-2.41c0,-1.331 -1.079,-2.409 -2.409,-2.409c-1.331,0 -2.409,1.078 -2.409,2.409c0,1.331 1.078,2.41 2.409,2.41" style="fill:#313149;fill-rule:nonzero;"/><path d="M54.063,15.771c1.536,0 2.782,-1.246 2.782,-2.782c0,-1.537 -1.246,-2.781 -2.782,-2.781c-1.536,0 -2.782,1.244 -2.782,2.781c0,1.536 1.246,2.782 2.782,2.782" style="fill:#313149;fill-rule:nonzero;"/><path d="M57.676,59.859l-15.373,0c-1.719,0 -2.732,-1.93 -1.754,-3.344l7.863,-11.38c0.859,-1.243 2.702,-1.224 3.534,0.037l7.51,11.38c0.936,1.418 -0.081,3.307 -1.78,3.307m9.355,-2.925l-10.928,-18.048l0,-10.08l0.266,0c1.581,0 2.863,-1.283 2.863,-2.864c0,-1.581 -1.282,-2.863 -2.863,-2.863l-12.737,0c-1.581,0 -2.863,1.282 -2.863,2.863c0,1.581 1.282,2.864 2.863,2.864l0.265,0l0,10.08l-10.927,18.048c-1.915,3.845 0.882,8.361 5.177,8.361l23.705,0c4.296,0 7.093,-4.516 5.179,-8.361" style="fill:#313149;fill-rule:nonzero;"/></g></svg>